<svg width="30" height="45" viewBox="0 0 30 45" fill="none" xmlns="http://www.w3.org/2000/svg">
<path d="M9 37.0588V38.3124C9 41.5052 11.6326 44.1177 14.8502 44.1177C18.0677 44.1177 20.7 41.5052 20.7 38.3124V37.0588H9Z" fill="#C6C5CA"/>
<path d="M9 38.3073C9 40.3851 10.124 42.2159 11.8007 43.2353C14.8037 40.887 18.1557 40.6679 20.1245 40.8007C20.4931 40.0447 20.7 39.1989 20.7 38.3073V37.0588H9V38.3073Z" fill="#ACABB1"/>
<path d="M28.8004 14.8941C28.8004 7.21486 22.6501 0.978619 15.0271 0.883438C7.34369 0.787911 0.983208 7.02381 0.901195 14.7411C0.853297 19.2731 2.94738 23.3153 6.22928 25.9098C7.86161 27.2001 8.84025 29.1504 8.84025 31.2368V33.5294H20.8606V31.2361C20.8606 29.1739 21.7983 27.2194 23.4179 25.952C26.6936 23.3883 28.8004 19.3883 28.8004 14.8941Z" fill="#FFEB99"/>
<path d="M15.5719 0.883438C7.59219 0.787911 0.986402 7.02381 0.901226 14.7411C0.851481 19.2731 3.02633 23.3153 6.4348 25.9098C8.13008 27.2001 9.14647 29.1504 9.14647 31.2368V33.5294H17.1004C15.9888 20.1214 11.8223 20.2823 10.6259 11.8137C9.82429 6.13846 15.5719 0.883438 15.5719 0.883438Z" fill="#FFDE55"/>
<path d="M21.7227 39.7059H8.87687C7.45933 39.7059 6.2998 38.5148 6.2998 37.0587C6.2998 35.6029 7.45933 34.4118 8.87687 34.4118H21.7227C23.1399 34.4118 24.2998 35.6029 24.2998 37.0587C24.2998 38.5148 23.1399 39.7059 21.7227 39.7059Z" fill="#D8D7DA"/>
<path d="M8.7947 34.4118C7.42235 34.4118 6.2998 35.6029 6.2998 37.059C6.2998 38.5148 7.42235 39.7059 8.7947 39.7059H14.9493C14.661 38.2838 15.4438 36.7427 16.8908 36.2969C18.4978 35.8016 19.7998 35.0613 19.7998 35.0613V34.4118L8.7947 34.4118Z" fill="#C6C5CA"/>
<path d="M21.7227 35.2941H8.87687C7.45933 35.2941 6.2998 34.1027 6.2998 32.6471C6.2998 31.191 7.45933 30 8.87687 30H21.7227C23.1399 30 24.2998 31.191 24.2998 32.6471C24.2998 34.1027 23.1399 35.2941 21.7227 35.2941Z" fill="#EAEAEA"/>
<path d="M10.9569 32.6471C10.9569 31.1914 12.1014 30 13.4998 30H8.84266C7.44394 30 6.2998 31.1914 6.2998 32.6471C6.2998 34.1027 7.44394 35.2941 8.84266 35.2941H13.4998C12.1014 35.2941 10.9569 34.1027 10.9569 32.6471Z" fill="#D8D7DA"/>
<path d="M21.5996 10.4291V11.6297C21.5996 12.029 21.8012 12.3529 22.0496 12.3529C22.2983 12.3529 22.4996 12.029 22.4996 11.6297V10.4291C22.4996 10.0295 22.2983 9.70587 22.0496 9.70587C21.8009 9.70587 21.5996 10.0295 21.5996 10.4291Z" fill="black"/>
<path d="M7.2002 10.4291V11.6297C7.2002 12.029 7.40152 12.3529 7.6502 12.3529C7.89863 12.3529 8.1002 12.029 8.1002 11.6297V10.4291C8.1002 10.0295 7.89863 9.70587 7.6502 9.70587C7.40152 9.70587 7.2002 10.0295 7.2002 10.4291Z" fill="black"/>
<path d="M16.0264 11.5922C15.0688 12.2385 13.7314 12.2385 12.7741 11.5922C12.4835 11.3961 12.065 11.442 11.84 11.6948C11.6146 11.9476 11.6673 12.3115 11.9579 12.5076C12.677 12.9927 13.5386 13.2353 14.4003 13.2353C15.2619 13.2353 16.1235 12.9927 16.8423 12.5076C17.1329 12.3115 17.1859 11.9476 16.9605 11.6948C16.7352 11.442 16.3166 11.3961 16.0264 11.5922Z" fill="black"/>
<path fill-rule="evenodd" clip-rule="evenodd" d="M29.7 14.5579C29.7 19.0778 27.6114 23.2653 23.9702 26.0469C22.9098 26.8568 22.1677 27.9733 21.8319 29.2401C23.3721 29.4931 24.5495 30.8081 24.5495 32.3887C24.5495 33.2532 24.1968 34.0377 23.626 34.6135C24.2091 35.2016 24.5495 35.994 24.5495 36.8351C24.5495 38.5957 23.0884 40.028 21.2925 40.028H21.2586C20.563 42.8999 17.9067 45 14.8501 45C11.7812 45 9.13607 42.904 8.44231 40.028H8.40763C6.61141 40.028 5.15034 38.5957 5.15034 36.8351C5.15034 35.9926 5.49074 35.2009 6.07384 34.6131C5.503 34.0377 5.15034 33.2529 5.15034 32.3887C5.15034 30.8098 6.32564 29.4955 7.86341 29.2408C7.52021 27.9736 6.7606 26.8423 5.6725 26.0029C2.01877 23.1836 -0.0485147 18.9542 0.000864822 14.399C0.0432401 10.5225 1.63424 6.88602 4.48109 4.15867C7.28486 1.47285 10.961 0 14.8501 0C14.9128 0 14.9751 0.000343323 15.0378 0.00137329C17.8129 0.035019 20.5109 0.824661 22.8401 2.2855C23.1528 2.48154 23.2442 2.88906 23.0443 3.19565C22.8443 3.50258 22.4283 3.59219 22.1155 3.39581C19.9978 2.06818 17.5446 1.35029 15.021 1.31973C11.4194 1.2775 8.01225 2.61921 5.4207 5.10178C2.83126 7.58263 1.38384 10.8895 1.34567 14.4134C1.30049 18.5559 3.18076 22.4025 6.5039 24.9671C7.90649 26.0493 8.86011 27.5345 9.23588 29.1958H12.6672C12.4126 27.0041 11.8684 24.5009 10.7635 22.203C10.6696 22.008 10.5761 21.8237 10.4833 21.6489L9.62426 22.1896C9.16304 22.4464 8.82333 22.1869 8.69516 21.9909C8.49449 21.6843 8.58519 21.2764 8.89793 21.08L9.80707 20.508C9.24709 19.6638 8.83139 19.2673 8.82508 19.2614C8.55787 19.0101 8.54737 18.5933 8.80267 18.3303C9.05797 18.0677 9.48103 18.0553 9.75034 18.3046C9.80847 18.3585 10.303 18.8288 10.9431 19.7932C10.9431 19.7932 11.8138 18.913 13.0605 19.7263L14.5703 20.6759C14.7398 20.7827 14.959 20.7827 15.1288 20.6759L16.639 19.726C17.8185 18.9562 18.7567 19.7936 18.7567 19.7936C19.3968 18.8288 19.8913 18.3585 19.9495 18.3046C20.2191 18.055 20.645 18.0667 20.8999 18.3314C21.1542 18.5957 21.1426 19.0115 20.8744 19.2618C20.8604 19.2748 20.4475 19.6721 19.8927 20.508L20.8019 21.08C21.1146 21.2764 21.2053 21.6843 21.0047 21.9905C20.8043 22.2971 20.3883 22.386 20.0759 22.1896L19.2165 21.6489C19.1237 21.8237 19.0302 22.008 18.9363 22.203C18.2303 23.6707 17.4045 25.9748 17.0305 29.1955H20.4608C20.8303 27.53 21.7674 26.0582 23.1437 25.0069C26.4557 22.477 28.3552 18.6685 28.3552 14.5579C28.3552 10.9733 26.9176 7.61662 24.3071 5.10624C24.042 4.85115 24.0378 4.43401 24.298 4.17412C24.5579 3.91422 24.9837 3.9101 25.2488 4.16519C28.1192 6.92551 29.7 10.6162 29.7 14.5579ZM12.3345 20.8359C11.9188 20.5544 11.6243 20.9314 11.6243 20.9314C12.5713 22.683 13.6051 25.3753 14.0243 29.1955H15.6759C16.0951 25.3753 17.1285 22.683 18.0759 20.9314C18.0759 20.9314 17.7081 20.6001 17.3653 20.8356L15.8552 21.7855C15.2441 22.1697 14.4547 22.1697 13.8443 21.7852L12.3345 20.8359ZM14.8501 43.6816C12.517 43.6816 10.4928 42.1593 9.83474 40.028H19.8651C19.2053 42.1566 17.1734 43.6816 14.8501 43.6816ZM21.2925 34.2636C22.347 34.2636 23.2047 33.4225 23.2047 32.3887C23.2047 31.355 22.347 30.5138 21.2925 30.5138H8.40763C7.35316 30.5138 6.49514 31.355 6.49514 32.3887C6.49514 33.4225 7.35316 34.2636 8.40763 34.2636H12.2456C12.6171 34.2636 12.918 34.5585 12.918 34.9228C12.918 35.2867 12.6171 35.582 12.2456 35.582H8.40763C7.99124 35.582 7.59375 35.5044 7.22743 35.364C6.76971 35.7176 6.49514 36.2563 6.49514 36.8351C6.49514 37.8688 7.35316 38.7096 8.40763 38.7096H21.2925C22.347 38.7096 23.2047 37.8688 23.2047 36.8351C23.2047 36.2573 22.9301 35.7176 22.4724 35.364C22.1064 35.5044 21.7086 35.582 21.2925 35.582H15.0767C14.7054 35.582 14.4043 35.2867 14.4043 34.9228C14.4043 34.5585 14.7054 34.2636 15.0767 34.2636H21.2925Z" fill="black"/>
</svg>
