<svg width="42" height="45" viewBox="0 0 42 45" fill="none" xmlns="http://www.w3.org/2000/svg">
<path d="M40.5052 37.6999C40.5052 34.0322 31.5854 31.0587 20.5822 31.0587C9.57905 31.0587 0.65918 34.0322 0.65918 37.6999C0.65918 41.3676 9.57905 44.3408 20.5822 44.3408C31.5854 44.3408 40.5052 41.3676 40.5052 37.6999Z" fill="#CCF8FF"/>
<path d="M20.5822 31.0587C9.57905 31.0587 0.65918 34.0322 0.65918 37.6999C0.65918 40.2635 5.01629 42.4876 11.3976 43.5944C19.7222 41.6512 22.7335 37.1764 22.7335 37.1764V31.0971C22.0269 31.0717 21.309 31.0587 20.5822 31.0587V31.0587Z" fill="#ABEBF4"/>
<path fill-rule="evenodd" clip-rule="evenodd" d="M5.97168 15.2693C5.97168 7.20051 12.513 0.65918 20.5821 0.65918C28.6509 0.65918 35.1922 7.20051 35.1922 15.2693C35.1922 20.6842 28.6128 30.1963 24.2842 35.868C22.4203 38.3104 18.744 38.3104 16.8797 35.868C12.5515 30.1963 5.97168 20.6845 5.97168 15.2693ZM13.6614 15.2693C13.6614 19.0915 16.7599 22.19 20.5821 22.19C24.4043 22.19 27.5028 19.0915 27.5028 15.2693C27.5028 11.4474 24.404 8.34892 20.5821 8.34892C16.7599 8.34892 13.6614 11.4471 13.6614 15.2693Z" fill="#FF929F"/>
<path d="M17.0009 21.1923C14.999 19.9793 13.6614 17.7807 13.6614 15.2693C12.1745 8.23768 16.0365 1.4035 16.0527 1.375C10.2014 3.28181 5.97168 8.78185 5.97168 15.2693C5.97168 20.6845 12.5515 30.1963 16.8797 35.868C18.744 38.3103 22.4203 38.3103 24.2842 35.868C24.9619 34.9801 25.6945 33.9982 26.4488 32.9525C24.026 28.5971 19.9332 24.79 17.0009 21.1923Z" fill="#FF737D"/>
<path d="M38.0913 33.7637C36.2906 32.7437 33.7346 31.8937 30.6992 31.3059C30.3415 31.2365 29.9961 31.4703 29.9268 31.8277C29.8577 32.1851 30.0912 32.5312 30.4486 32.6002C33.3456 33.1612 35.7636 33.9601 37.4417 34.9111C38.5383 35.5325 39.846 36.521 39.846 37.6999C39.846 39.1247 37.8331 40.6467 34.4614 41.7704C30.7638 43.0029 25.8347 43.6816 20.5822 43.6816C15.3294 43.6816 10.4003 43.0029 6.70303 41.7704C3.33126 40.6467 1.31836 39.1247 1.31836 37.6999C1.31836 36.6058 2.48188 35.4556 4.59469 34.4617C6.78989 33.4286 9.8101 32.6407 13.3491 32.1748C14.3536 33.601 15.373 34.9801 16.3559 36.2679C17.3701 37.5969 18.9102 38.3591 20.5822 38.3591C22.2538 38.3591 23.794 37.5969 24.8082 36.2679C29.8461 29.6665 35.8515 20.6649 35.8515 15.2693C35.8515 6.84998 29.0018 0 20.5822 0C14.6032 0 9.14303 3.51906 6.6711 8.96519C6.52073 9.29649 6.66733 9.68719 6.99898 9.83757C7.33028 9.98795 7.72099 9.84135 7.8717 9.5097C10.1301 4.53358 15.1192 1.31836 20.5822 1.31836C28.2747 1.31836 34.5331 7.57679 34.5331 15.2693C34.5331 17.541 33.1334 23.186 23.7603 35.468C22.9975 36.4674 21.8391 37.0407 20.5822 37.0407C19.325 37.0407 18.1666 36.4674 17.4041 35.468C8.03066 23.186 6.63128 17.541 6.63128 15.2693C6.63128 14.1119 6.77307 12.9615 7.05288 11.8501C7.14214 11.4972 6.92791 11.1388 6.57497 11.0498C6.22169 10.9609 5.86361 11.1752 5.77469 11.5281C5.4681 12.7445 5.31292 14.0031 5.31292 15.2693C5.31292 19.316 8.69087 25.3911 12.5052 30.9608C9.11968 31.4539 6.20728 32.2459 4.03336 33.2687C2.19349 34.1345 0 35.606 0 37.6999C0 39.7801 2.23228 41.6698 6.2859 43.0211C10.1143 44.2972 15.1917 45 20.5822 45C25.9727 45 31.0498 44.2972 34.8785 43.0211C38.9321 41.6698 41.1644 39.7801 41.1644 37.6999C41.1644 35.8858 39.4934 34.5582 38.0913 33.7637Z" fill="black"/>
<path fill-rule="evenodd" clip-rule="evenodd" d="M20.5818 7.68939C24.7611 7.68939 28.1617 11.0897 28.1617 15.2693C28.1617 19.4489 24.7611 22.8492 20.5818 22.8492C16.4022 22.8492 13.002 19.4489 13.002 15.2693C13.002 11.09 16.4022 7.68939 20.5818 7.68939ZM20.5818 9.00775C17.129 9.00775 14.3203 11.8168 14.3203 15.2693C14.3203 18.7221 17.1294 21.5308 20.5818 21.5308C24.0343 21.5308 26.8434 18.7221 26.8434 15.2693C26.8434 11.8168 24.0343 9.00775 20.5818 9.00775Z" fill="black"/>
</svg>
