<svg width="44" height="30" viewBox="0 0 44 30" fill="none" xmlns="http://www.w3.org/2000/svg">
<path d="M7.90636 9.11371H3.10883C1.73769 9.11371 0.625977 10.2254 0.625977 11.5966V17.6336C0.625977 19.0047 1.73769 20.1164 3.10883 20.1164H7.90636L9.95639 14.5895L7.90636 9.11371Z" fill="#FF929F"/>
<path d="M34.8062 26.1218C34.1544 25.4905 34.2055 24.4244 34.8629 23.7986C37.4064 21.3764 38.8069 18.1149 38.8069 14.6149C38.8069 11.1148 37.4061 7.85337 34.8626 5.43147C34.2055 4.80538 34.1801 3.76537 34.8059 3.10799C35.4316 2.45094 36.4717 2.42551 37.129 3.05128C40.3302 6.09993 42.0934 10.2065 42.0934 14.6152C42.0934 19.0233 40.3305 23.1302 37.1294 26.1785C36.8113 26.4813 35.7683 27.0536 34.8062 26.1218Z" fill="#ABEBF4"/>
<path d="M29.0974 21.9653C28.6066 21.202 28.7868 20.192 29.5387 19.6839C31.2263 18.5432 32.2337 16.6483 32.2337 14.6149C32.2337 12.5811 31.2263 10.6862 29.5381 9.54552C28.7858 9.03773 28.5883 8.01598 29.0961 7.26408C29.6042 6.51219 30.6256 6.31435 31.3779 6.82246C33.9715 8.57493 35.5203 11.488 35.5203 14.6149C35.5203 17.7414 33.9722 20.6542 31.3788 22.4069C31.0969 22.5973 29.7496 22.9799 29.0974 21.9653Z" fill="#CCF8FF"/>
<path d="M7.90625 9.11369V20.1164L20.9479 28.0881C23.2567 29.4993 26.2193 27.8378 26.2193 25.132V4.09812C26.2193 1.39233 23.2567 -0.269203 20.9479 1.14203L7.90625 9.11369Z" fill="#EAEAEA"/>
<path d="M4.59437 14.6149C6.31685 14.6149 8.02337 14.319 9.63993 13.7444L7.90636 9.11371H3.10883C1.73769 9.11371 0.625977 10.2254 0.625977 11.5966V14.6149H4.59437Z" fill="#FF737D"/>
<path d="M10.9129 13.2258L26.2197 6.15271V4.09812C26.2197 1.39233 23.257 -0.269203 20.9482 1.14203L7.90625 9.11369V14.2453C8.93876 14.0126 9.94683 13.672 10.9129 13.2258Z" fill="#D8D7DA"/>
<path fill-rule="evenodd" clip-rule="evenodd" d="M20.6216 0.608175C21.9014 -0.174357 23.447 -0.203364 24.7555 0.530606C26.0641 1.26425 26.845 2.59791 26.8453 4.09812V25.1316C26.8453 26.6319 26.0641 27.9658 24.7555 28.6995C24.1242 29.0534 22.3734 29.6359 20.6216 28.6219L7.72983 20.7422H3.10862C1.39461 20.7422 0 19.3476 0 17.6335V11.5965C0 9.88253 1.39461 8.48793 3.10862 8.48793H7.72983L20.6216 0.608175ZM24.1431 27.608C25.0515 27.0986 25.5935 26.173 25.5935 25.1316H25.5938V4.09812C25.5938 3.05713 25.0515 2.13152 24.1434 1.62211C23.2351 1.1127 22.1625 1.13291 21.2741 1.67589L8.53191 9.46471V17.3891C8.53191 17.7349 8.25163 18.0149 7.90615 18.0149C7.56035 18.0149 7.28039 17.7349 7.28039 17.3891V9.73946H3.10862C2.08458 9.73946 1.25153 10.5725 1.25153 11.5965V17.6335C1.25153 18.6573 2.08458 19.4906 3.10862 19.4906H7.90615V19.4913C8.01761 19.491 8.13038 19.52 8.2324 19.5822L21.2741 27.5539C22.1628 28.0972 23.2351 28.1171 24.1431 27.608Z" fill="black"/>
<path d="M40.1198 5.69217C39.9334 5.40113 39.5462 5.31671 39.2551 5.50347C38.9644 5.69022 38.88 6.07708 39.0668 6.36813C40.637 8.81448 41.4671 11.6663 41.4671 14.6149C41.4671 18.8505 39.773 22.7961 36.697 25.7255C36.6901 25.732 35.9679 26.4043 35.2411 25.6723C34.718 25.146 35.0879 24.4479 35.2939 24.2516C37.9625 21.7105 39.4321 18.288 39.4321 14.6149C39.4321 10.9421 37.9625 7.5196 35.2936 4.97808C35.0967 4.79068 34.6802 4.15449 35.2587 3.53948C35.8369 2.92447 36.5001 3.31687 36.697 3.50428C37.0034 3.7963 37.3006 4.10299 37.5809 4.4162C37.8113 4.67368 38.207 4.69584 38.4645 4.46541C38.7219 4.23499 38.7441 3.83932 38.5137 3.58185C38.2115 3.24387 37.8905 2.91273 37.56 2.59822C37.121 2.18007 35.6061 1.28444 34.3523 2.67644C33.1161 4.04856 33.9919 5.46631 34.4305 5.88447C36.8489 8.18741 38.1806 11.2879 38.1806 14.6149C38.1806 17.9419 36.8078 21 34.4305 23.3453C32.9659 24.7907 33.9459 26.1602 34.3703 26.5712C34.8868 27.0718 36.2182 27.9173 37.5604 26.6315C40.8776 23.4541 42.7187 19.1963 42.7187 14.6149C42.7187 11.4261 41.8201 8.34059 40.1198 5.69217Z" fill="black"/>
<path fill-rule="evenodd" clip-rule="evenodd" d="M28.5773 6.91372C29.2608 5.86589 30.6909 5.60352 31.7277 6.30392C34.4941 8.17307 36.1455 11.2801 36.1458 14.6149C36.1458 17.9497 34.4944 21.0563 31.7286 22.9252C31.4868 23.0888 29.8184 23.9792 28.5705 22.304C27.8864 21.2402 28.1575 19.8615 29.1878 19.1654C30.703 18.1413 31.6077 16.4403 31.6077 14.6149C31.6077 12.7894 30.7026 11.0881 29.1871 10.0641C28.6849 9.72477 27.4751 8.60328 28.5773 6.91372ZM29.6232 21.627C30.0179 22.2414 30.9151 21.9503 31.0328 21.8851C33.4508 20.2487 34.894 17.5315 34.8943 14.6149C34.8943 11.6963 33.4485 8.97711 31.0269 7.341C30.5622 7.02714 29.9286 7.14968 29.6141 7.61477C29.1373 8.32006 29.6626 8.8751 29.8878 9.0273C31.7482 10.284 32.8589 12.3729 32.8589 14.6149C32.8589 16.8565 31.7485 18.9454 29.8885 20.2024C29.4267 20.5143 29.31 21.1401 29.6232 21.627Z" fill="black"/>
</svg>
