<svg width="48" height="45" viewBox="0 0 48 45" fill="none" xmlns="http://www.w3.org/2000/svg">
<path d="M15.4002 21.6174L6.95435 30.0629C5.89022 31.1274 5.89022 32.8692 6.95435 33.9337C8.01884 34.9979 9.76067 34.9979 10.8252 33.9337L11.6776 33.0813C12.4853 32.2736 13.8069 32.2736 14.615 33.0813C15.4227 33.8891 15.4227 35.2111 14.615 36.0188L11.0907 39.5431C10.0262 40.6073 10.0262 42.3491 11.0907 43.4136C12.1551 44.4781 13.897 44.4781 14.9611 43.4136L26.0789 32.2961L15.4002 21.6174Z" fill="#CCF8FF"/>
<path d="M12.3799 24.6373C12.6196 25.8718 13.2268 27.3953 14.5136 29.1826C16.8579 32.4385 19.2176 34.8566 20.7131 37.6615L26.0788 32.2958L15.4001 21.6174L12.3799 24.6373Z" fill="#ABEBF4"/>
<path d="M33.5677 32.14C32.0263 33.6814 24.7361 38.8255 23.4127 37.5021C22.0893 36.179 27.2334 28.8888 28.7751 27.3474C30.3165 25.8061 32.2697 25.9986 33.5931 27.322C34.9166 28.6455 35.1091 30.5987 33.5677 32.14Z" fill="#FF929F"/>
<path d="M20.3486 18.9215C18.8072 20.4632 11.517 25.6074 10.194 24.2839C8.87051 22.9605 14.0147 15.6703 15.556 14.1289C17.0974 12.5876 19.0506 12.7801 20.374 14.1035C21.6975 15.427 21.8903 17.3802 20.3486 18.9215Z" fill="#FF929F"/>
<path d="M46.8275 5.3566C46.5555 2.99953 44.6967 1.14076 42.3396 0.868731C37.753 0.339208 29.9423 0.644646 24.5498 7.30581C20.1353 12.7594 17.4495 16.7206 15.9227 19.1896C14.848 20.9274 15.111 23.1759 16.5557 24.6206L23.0756 31.1405C24.5207 32.5856 26.7688 32.8486 28.5067 31.7739C30.9759 30.2467 34.9372 27.561 40.3904 23.1465C47.0516 17.7539 47.3574 9.94326 46.8275 5.3566Z" fill="#EAEAEA"/>
<path d="M46.9662 7.00872C46.9357 6.42291 46.8867 5.86941 46.8275 5.3566C46.5555 2.99989 44.6967 1.14112 42.3396 0.868728C37.753 0.339205 29.9423 0.644643 24.5498 7.30617C20.1353 12.7594 17.4495 16.7206 15.9227 19.1899C14.848 20.9278 15.111 23.1759 16.5557 24.621L20.9281 28.993C23.1177 23.7795 27.3732 18.4567 30.3487 15.1074C32.1505 13.0801 34.6027 11.7588 37.2794 11.3219C42.162 10.5251 45.2905 8.46437 46.9662 7.00872Z" fill="#D8D7DA"/>
<path d="M46.828 5.3566C46.556 2.99953 44.6972 1.14075 42.3401 0.868727C40.6604 0.674786 38.547 0.592707 36.2793 0.89415L46.8026 11.4178C47.104 9.14969 47.0219 7.03669 46.828 5.3566Z" fill="#FF929F"/>
<path d="M46.828 5.3566C46.556 2.99953 44.6972 1.14075 42.3401 0.868727C40.6604 0.674786 38.547 0.592707 36.2793 0.89415L44.285 8.90019C45.4174 8.25227 46.3054 7.58292 46.9667 7.00872C46.9362 6.42291 46.8872 5.86941 46.828 5.3566Z" fill="#FF737D"/>
<path d="M26.958 25.5308C25.4166 27.0725 18.1264 32.2166 16.8033 30.8932C15.4799 29.5697 20.624 22.2795 22.1654 20.7382C23.7067 19.1968 25.6599 19.3893 26.9834 20.7128C28.3068 22.0362 28.4993 23.9894 26.958 25.5308Z" fill="#FF929F"/>
<path d="M39.8948 13.7574C39.8948 17.0468 37.2283 19.7129 33.9393 19.7129C30.6499 19.7129 27.9834 17.0468 27.9834 13.7574C27.9834 10.4681 30.6499 7.80157 33.9393 7.80157C37.2283 7.80157 39.8948 10.4681 39.8948 13.7574Z" fill="#D8D7DA"/>
<path d="M30.3487 15.1074C32.1504 13.0797 34.6027 11.7585 37.2793 11.3219C37.9458 11.213 38.5806 11.0804 39.1824 10.9293C38.9144 10.4328 38.5701 9.96543 38.1502 9.54595C35.8244 7.22012 32.0535 7.22012 29.7276 9.54595C27.7472 11.5264 27.4534 14.5546 28.8455 16.8463C29.3695 16.2231 29.8758 15.6395 30.3487 15.1074Z" fill="#C6C5CA"/>
<path d="M31.7003 15.9961C30.4658 14.7616 30.4658 12.7528 31.7003 11.5184C32.9347 10.2839 34.9435 10.2839 36.178 11.5184C37.4128 12.7528 37.4128 14.7616 36.178 15.9961C34.9435 17.2305 32.9347 17.2305 31.7003 15.9961Z" fill="#CCF8FF"/>
<path d="M33.3353 13.5606C34.3272 12.5687 35.8188 12.3748 37.0067 12.9762C36.8716 12.442 36.5953 11.9357 36.178 11.5184C34.9435 10.2839 32.9347 10.2839 31.7003 11.5184C30.4658 12.7528 30.4658 14.7616 31.7003 15.9961C31.9432 16.239 32.2163 16.4344 32.5076 16.5815C32.2429 15.5352 32.5182 14.3777 33.3353 13.5606Z" fill="#ABEBF4"/>
<path d="M6.27097 37.3644C6.27097 38.8782 5.04377 40.1054 3.53002 40.1054C2.01626 40.1054 0.789062 38.8782 0.789062 37.3644C0.789062 35.8507 2.01626 34.6235 3.53002 34.6235C5.04377 34.6235 6.27097 35.8507 6.27097 37.3644Z" fill="#ABEBF4"/>
<path fill-rule="evenodd" clip-rule="evenodd" d="M29.2345 9.05276C31.8287 6.4589 36.0496 6.4589 38.6435 9.05276C41.2377 11.647 41.2377 15.8676 38.6435 18.4618C36.0493 21.056 31.8287 21.056 29.2345 18.4618C26.6406 15.8679 26.6406 11.647 29.2345 9.05276ZM30.2209 10.0392C28.1707 12.0893 28.1707 15.4256 30.2209 17.4757C32.271 19.5259 35.6069 19.5259 37.6574 17.4757C39.7076 15.4252 39.7076 12.0893 37.6574 10.0392C35.6069 7.98899 32.271 7.98899 30.2209 10.0392Z" fill="black"/>
<path fill-rule="evenodd" clip-rule="evenodd" d="M31.207 11.0252C32.7131 9.51869 35.1643 9.51905 36.6708 11.0252C38.1772 12.5317 38.1772 14.9828 36.6708 16.4893C35.1643 17.9958 32.7131 17.9958 31.207 16.4893C29.7005 14.9828 29.7005 12.5317 31.207 11.0252ZM32.1931 12.0116C31.2303 12.974 31.2303 14.5404 32.1931 15.5029C33.1559 16.4657 34.7219 16.4657 35.6847 15.5029C36.6472 14.5404 36.6472 12.974 35.6847 12.0116C34.7219 11.0488 33.1559 11.0488 32.1931 12.0116Z" fill="black"/>
<path fill-rule="evenodd" clip-rule="evenodd" d="M35.0207 28.178C36.7175 26.9334 38.6544 25.4487 40.8287 23.6884C43.8922 21.2085 45.9616 17.9914 46.9796 14.1268C47.8774 10.7187 47.7688 7.43258 47.5201 5.27636C47.2092 2.58443 45.1118 0.487042 42.4195 0.175793C40.2633 -0.072988 36.9775 -0.18158 33.569 0.716575C29.7044 1.73422 26.4873 3.80364 24.0075 6.8671C22.2475 9.04112 20.7632 10.978 19.5185 12.6744C18.0128 12.0025 16.3537 12.345 15.0626 13.6361C14.2498 14.4489 12.5432 16.7036 11.2031 18.9285C8.72615 23.0408 9.15942 24.236 9.70057 24.7772C9.92102 24.9976 10.2497 25.1988 10.8355 25.1956L6.46133 29.5698C5.12227 30.9088 5.12227 33.0876 6.46133 34.4266C7.80039 35.7657 9.97913 35.7657 11.3182 34.4266L12.1702 33.5746C12.7081 33.0367 13.5837 33.0367 14.1216 33.5746C14.6595 34.1125 14.6595 34.9877 14.1216 35.5256L10.5973 39.05C9.25821 40.389 9.25821 42.5678 10.5973 43.9068C11.9363 45.2459 14.1151 45.2459 15.4541 43.9068L17.6659 41.6947C17.9383 41.4223 17.9383 40.981 17.6659 40.7086C17.3935 40.4362 16.9523 40.4362 16.6799 40.7086L14.4677 42.9204C13.6727 43.7158 12.3787 43.7158 11.5833 42.9204C10.7883 42.125 10.7883 40.8314 11.5833 40.036L15.1077 36.5117C16.1896 35.4301 16.1896 33.6701 15.1077 32.5882C14.0257 31.5063 12.2657 31.5063 11.1842 32.5882L10.3318 33.4402C9.53641 34.2356 8.24275 34.2356 7.44737 33.4406C6.652 32.6452 6.652 31.3512 7.44737 30.5562L13.7141 24.2894C14.1067 24.0955 14.5375 23.8649 15.0107 23.5921C15.2598 24.1456 15.6107 24.6624 16.0621 25.1138L17.3245 26.3763C15.3986 29.8175 15.8072 30.8838 16.3098 31.3864C16.8121 31.8887 17.8788 32.2976 21.3199 30.3713L22.582 31.6337C23.0334 32.0852 23.5502 32.436 24.1037 32.6855C23.8306 33.1591 23.6 33.5898 23.4061 33.9828L23.4037 33.9848L23.403 33.9854L23.4013 33.9868L18.8503 38.5382C18.5779 38.8103 18.5779 39.2519 18.8503 39.5243C19.1227 39.7967 19.5643 39.7967 19.8367 39.5243L22.5003 36.8603C22.497 37.4465 22.6986 37.7748 22.919 37.9956C23.4602 38.5368 24.6554 38.9697 28.7674 36.4931C30.9926 35.153 33.2473 33.446 34.0601 32.6332C35.3417 31.3512 35.6817 29.6736 35.0207 28.178ZM10.6906 23.7871C10.5969 23.5333 10.7542 22.33 12.5272 19.4347C13.7878 17.3769 15.3368 15.3344 16.049 14.6222C16.8324 13.8388 17.7731 13.5719 18.669 13.8461C17.1785 15.9289 16.0901 17.5923 15.3292 18.8228C14.6824 19.8684 14.4517 21.0651 14.6115 22.2095C12.0275 23.7381 10.931 23.8758 10.6906 23.7871ZM19.1365 26.044C17.3634 28.9393 17.2061 30.1425 17.2998 30.3964C17.5533 30.4897 18.7566 30.3328 21.6519 28.5594C23.7097 27.2991 25.7522 25.7501 26.4644 25.0376C27.8881 23.6143 27.368 22.0838 26.4899 21.206C25.612 20.3278 24.0816 19.8077 22.6583 21.2314C21.9461 21.9436 20.3971 23.9862 19.1365 26.044ZM22.5595 29.6384C24.6489 28.3418 26.6867 26.7881 27.4508 26.024C29.1669 24.3079 29.1774 21.9211 27.4763 20.2196C25.7751 18.5184 23.3883 18.529 21.6719 20.2454C20.9081 21.0091 19.3544 23.047 18.0574 25.1367L17.0485 24.1278C15.826 22.9053 15.607 21.0255 16.5154 19.5568C17.9706 17.2033 20.64 13.2439 25.0916 7.74492C27.3811 4.9168 30.3527 3.00573 33.9242 2.06508C37.1228 1.22285 40.2222 1.32636 42.2593 1.5617C44.3048 1.79777 45.8981 3.39107 46.1345 5.43652C46.2711 6.62123 46.3619 8.16585 46.2496 9.87935L39.1214 2.75113C38.849 2.47875 38.4074 2.47875 38.135 2.75113C37.8626 3.02316 37.8626 3.46479 38.135 3.73718L46.0597 11.6619C45.9569 12.3534 45.8185 13.0598 45.6308 13.7716C44.6901 17.3435 42.779 20.3151 39.9513 22.6042C34.4519 27.0562 30.4925 29.7256 28.1394 31.1805C26.6704 32.0892 24.7909 31.8698 23.5684 30.6473L22.5595 29.6384ZM23.9091 37.0056C24.1626 37.0989 25.3658 36.942 28.2611 35.1686C30.3189 33.9084 32.3615 32.3594 33.0737 31.6468C33.8632 30.8572 34.128 29.9206 33.8512 29.0257C31.7677 30.5173 30.1039 31.6058 28.8731 32.367C27.8275 33.0135 26.6311 33.2441 25.4864 33.0843C23.9577 35.6687 23.8205 36.7652 23.9091 37.0056Z" fill="black"/>
<path fill-rule="evenodd" clip-rule="evenodd" d="M1.09816 34.9329C2.43904 33.5924 4.62032 33.5924 5.9612 34.9329C7.30171 36.2738 7.30171 38.455 5.96083 39.7959C4.62032 41.1364 2.43904 41.1364 1.09816 39.7956C-0.242355 38.455 -0.242355 36.2738 1.09816 34.9329ZM2.08457 35.9193C1.28774 36.7161 1.28774 38.0127 2.08457 38.8095C2.88139 39.6063 4.17796 39.6063 4.97479 38.8095C5.77162 38.0127 5.77162 36.7161 4.97479 35.9193C4.17796 35.1225 2.88139 35.1225 2.08457 35.9193Z" fill="black"/>
</svg>
