<svg width="41" height="45" viewBox="0 0 41 45" fill="none" xmlns="http://www.w3.org/2000/svg">
<path d="M35.352 8.14224C29.167 7.35981 25.0605 4.26579 22.6817 1.7664C21.2768 0.290108 18.9147 0.290108 17.5098 1.7664C15.131 4.26579 11.0245 7.35981 4.83986 8.14224C2.25087 8.46977 0.423017 10.85 0.738531 13.4404C1.53126 19.9409 3.45456 30.7421 7.13944 34.7683C10.4223 38.3557 14.5518 41.5242 17.2544 43.4382C18.957 44.6436 21.2349 44.6436 22.9374 43.4382C25.6401 41.5242 29.7696 38.3557 33.0524 34.7683C36.7373 30.7418 38.6606 19.9409 39.4533 13.4404C39.7688 10.85 37.9406 8.46977 35.352 8.14224Z" fill="#CCF8FF"/>
<path d="M24.9047 3.79406C24.042 3.11222 23.3028 2.41871 22.6817 1.7664C21.2769 0.290108 18.9148 0.290108 17.5099 1.7664C15.131 4.26579 11.0245 7.36015 4.83993 8.14224C2.25093 8.46977 0.42274 10.85 0.738597 13.4404C1.53099 19.9409 3.45462 30.7421 7.13951 34.7683C9.22382 37.0459 11.6491 39.1546 13.834 40.8805C11.7517 34.4109 11.3342 27.8737 11.4225 23.0527C11.4942 19.1368 13.5624 15.5357 16.8858 13.4634C21.4413 10.6224 23.9033 6.06239 24.9047 3.79406Z" fill="#ABEBF4"/>
<path d="M21.2052 38.8851C20.5491 39.3839 19.6421 39.3839 18.986 38.8851C16.9813 37.3614 12.7595 34.0594 10.5509 31.6461C10.0455 31.0934 8.71925 29.2298 7.3312 23.8723C6.59374 21.0248 5.97748 16.9152 5.65716 14.5648C5.52223 13.5733 6.18072 12.6425 7.16297 12.4527C12.4268 11.4358 16.3321 9.03353 19.0395 6.6907C19.6445 6.16747 20.5471 6.16747 21.1517 6.6907C23.8594 9.03353 27.7647 11.4358 33.0282 12.4527C34.0108 12.6425 34.6693 13.5733 34.534 14.5648C34.2141 16.9152 33.5978 21.0251 32.86 23.8723C31.4719 29.2298 30.146 31.0934 29.6403 31.6461C27.4317 34.0594 23.2099 37.3614 21.2052 38.8851Z" fill="#B2E59C"/>
<path d="M20.0958 28.367C19.7092 28.367 19.3216 28.2383 19.0016 27.9781L13.8349 23.7741C13.092 23.1695 12.9801 22.077 13.5843 21.3341C14.1893 20.5911 15.2814 20.4789 16.0243 21.0835L19.9821 24.3042L25.7743 18.5659C26.4548 17.8919 27.5531 17.8971 28.227 18.5775C28.9013 19.258 28.8962 20.356 28.2157 21.0302L21.3166 27.8648C20.9805 28.1978 20.539 28.367 20.0958 28.367Z" fill="#FFEB99"/>
<path d="M22.6173 7.86898C22.0948 7.47931 21.6059 7.0838 21.1517 6.6907C20.5471 6.16747 19.6445 6.16747 19.0395 6.6907C16.3321 9.03353 12.4268 11.4358 7.16297 12.4527C6.18072 12.6425 5.52223 13.5733 5.65716 14.5648C5.97748 16.9152 6.5934 21.0251 7.3312 23.8723C8.71925 29.2298 10.0452 31.0934 10.5509 31.6461C10.9842 32.1196 11.4964 32.6284 12.0529 33.1502C11.4978 29.4259 11.3697 25.9326 11.4222 23.0528C11.494 19.1368 13.5622 15.5354 16.8855 13.4634C19.3973 11.8972 21.2722 9.80875 22.6173 7.86898Z" fill="#9AD880"/>
<path d="M35.4344 7.48821C34.0416 7.31209 32.6803 7.0031 31.3891 6.57017C31.0437 6.45447 30.6701 6.64055 30.5544 6.98559C30.4387 7.33097 30.6248 7.70451 30.9699 7.82021C32.3435 8.28094 33.7899 8.60916 35.2693 8.79627C37.4878 9.07711 39.0713 11.1247 38.7987 13.3604C38.4413 16.2924 37.7869 20.6687 36.6992 24.8669C35.5144 29.4396 34.124 32.6212 32.5663 34.3233C29.3676 37.8187 25.3572 40.9169 22.5564 42.9002C21.0846 43.9426 19.107 43.9426 17.6356 42.9002C14.8347 40.9169 10.8244 37.8187 7.62563 34.3233C6.06798 32.6212 4.67718 29.4396 3.49272 24.8669C2.40507 20.6687 1.7507 16.2924 1.39295 13.3604C1.1207 11.1247 2.70376 9.07711 4.92265 8.79627C11.3184 7.9874 15.5574 4.7739 17.9875 2.22061C18.5412 1.63902 19.29 1.31836 20.0958 1.31836C20.9016 1.31836 21.6504 1.63902 22.2045 2.22061C23.9551 4.06013 25.9786 5.56011 28.2188 6.679C28.5443 6.84174 28.9405 6.70956 29.1032 6.38374C29.2656 6.05793 29.1334 5.66208 28.808 5.49969C26.7048 4.44912 24.8045 3.04012 23.1593 1.31184C22.3542 0.465889 21.2662 0 20.0958 0C18.9254 0 17.8374 0.465889 17.0323 1.31184C14.7499 3.70995 10.7677 6.7281 4.75717 7.48821C1.82039 7.85969 -0.275939 10.5658 0.084207 13.5201C0.698068 18.5552 2.56712 30.7487 6.653 35.2136C9.93036 38.7948 14.02 41.9554 16.8734 43.9762C17.8371 44.6587 18.9663 45 20.0958 45C21.225 44.9997 22.3545 44.6587 23.3182 43.9762C26.1716 41.9554 30.2612 38.7948 33.5386 35.2136C37.6248 30.7487 39.4935 18.5552 40.1074 13.5201C40.4675 10.5658 38.3712 7.85969 35.4344 7.48821Z" fill="black"/>
<path fill-rule="evenodd" clip-rule="evenodd" d="M7.03798 11.8055C11.3807 10.9664 15.2736 9.0778 18.6083 6.19217C19.4563 5.45849 20.7348 5.45849 21.5828 6.19217C24.9175 9.0778 28.8105 10.9664 33.1532 11.8055C34.4763 12.0613 35.37 13.3123 35.1874 14.654C34.8797 16.9097 34.2518 21.1284 33.4979 24.0377C32.1242 29.3407 30.7959 31.3598 30.1264 32.0911C27.9257 34.4957 23.8423 37.7089 21.6041 39.41C21.1599 39.7475 20.6277 39.9161 20.0956 39.9161C19.5634 39.9161 19.0313 39.7475 18.587 39.41C16.3489 37.7089 12.2654 34.4957 10.0647 32.0911C9.39523 31.3598 8.06692 29.3407 6.69328 24.0377C5.93969 21.1291 5.31141 16.91 5.00413 14.654C4.82149 13.3123 5.71481 12.0613 7.03798 11.8055ZM32.2217 23.7071C32.9585 20.8634 33.5775 16.703 33.881 14.4759C33.9692 13.8273 33.5397 13.2231 32.9032 13.0998C28.3305 12.2165 24.2316 10.2279 20.7201 7.18918C20.5422 7.03502 20.3187 6.95778 20.0956 6.95778C19.8724 6.95778 19.6489 7.03502 19.4711 7.18918C15.9596 10.2279 11.8606 12.2165 7.28792 13.0998C6.6514 13.2231 6.2219 13.8273 6.31048 14.4759C6.61397 16.7033 7.23298 20.8641 7.96941 23.7071C9.35815 29.0678 10.6686 30.7981 11.0373 31.2012C13.2477 33.6161 17.6113 37.0123 19.3849 38.3601C19.8034 38.6784 20.3877 38.6784 20.8062 38.3601C22.5799 37.0123 26.9435 33.6164 29.1541 31.2012C29.5225 30.7981 30.833 29.0678 32.2217 23.7071Z" fill="black"/>
<path d="M16.4398 20.5722C15.9441 20.1685 14.2707 19.3349 13.0725 20.918C11.8747 22.5007 12.9225 23.8815 13.4182 24.2853L15.3299 25.8405C15.6121 26.0702 16.0275 26.028 16.2572 25.7454C16.4869 25.4629 16.4443 25.0478 16.1621 24.8178L14.2505 23.2625C14.028 23.0812 13.5418 22.4911 14.0953 21.7498C14.6487 21.0089 15.3851 21.4134 15.6076 21.5947L19.5658 24.8154C19.8271 25.0279 20.2064 25.0093 20.4457 24.7721L26.2379 19.0342C26.6592 18.6167 27.341 18.6201 27.7585 19.0414C28.1756 19.4623 28.1722 20.1445 27.7513 20.5616L20.8522 27.3965C20.306 27.9231 19.7045 27.7037 19.4171 27.4665L18.3219 26.5756C18.0394 26.3459 17.6243 26.3885 17.3943 26.6707C17.1646 26.9529 17.2072 27.3683 17.4897 27.598L18.5849 28.4893C19.0103 28.8353 19.5466 29.0262 20.0952 29.0262C20.7307 29.0262 21.3291 28.7801 21.7802 28.333L28.6789 21.4985C29.6166 20.5695 29.6238 19.051 28.6947 18.1134C27.7661 17.1761 26.2475 17.1689 25.3099 18.0976L19.9383 23.4191L16.4398 20.5722Z" fill="black"/>
</svg>
