<svg width="42" height="40" viewBox="0 0 42 40" fill="none" xmlns="http://www.w3.org/2000/svg">
<path d="M26.0063 33.8081C26.0063 36.8606 23.5319 39.335 20.4797 39.335C17.4275 39.335 14.9531 36.8606 14.9531 33.8081C14.9531 30.7559 17.4275 28.2816 20.4797 28.2816C23.5319 28.2816 26.0063 30.7559 26.0063 33.8081Z" fill="#FFDE55"/>
<path d="M20.4797 28.2816C17.4275 28.2816 14.9531 30.7559 14.9531 33.8081C14.9531 35.9194 16.1387 37.7519 17.8791 38.6825C20.0219 36.2825 23.6322 35.9728 25.5566 35.9956C25.8459 35.3247 26.0066 34.5853 26.0066 33.8081C26.0062 30.7559 23.5319 28.2816 20.4797 28.2816V28.2816Z" fill="#FFCD00"/>
<path d="M32.6954 16.066C32.6954 16.066 32.8192 0.640015 20.4798 0.640015C8.14043 0.640015 8.26418 16.066 8.26418 16.066C8.26418 16.066 8.35918 25.4928 3.50293 31.3016H37.4567C32.6004 25.4928 32.6954 16.066 32.6954 16.066Z" fill="#FFDE55"/>
<path d="M14.6307 31.3016C16.6214 25.7966 17.2304 20.1903 17.397 16.6644C17.4917 14.6657 18.0661 12.7228 19.0461 10.9782C21.1367 7.25597 19.6464 2.86284 18.6864 0.756592C8.15293 2.17472 8.26418 16.066 8.26418 16.066C8.26418 16.066 8.35918 25.4928 3.50293 31.3016H14.6307Z" fill="#FFCD00"/>
<path d="M37.0993 34.8022H3.85992C2.0668 34.8022 0.599609 33.335 0.599609 31.5419C0.599609 29.7487 2.0668 28.2816 3.85992 28.2816H37.0993C38.8924 28.2816 40.3596 29.7487 40.3596 31.5419C40.3596 33.335 38.8924 34.8022 37.0993 34.8022Z" fill="#FFEB99"/>
<path d="M10.0702 31.5419C10.0702 29.7487 11.5374 28.2816 13.3305 28.2816H3.85992C2.0668 28.2816 0.599609 29.7487 0.599609 31.5419C0.599609 33.335 2.0668 34.8022 3.85992 34.8022H13.3305C11.5374 34.8022 10.0702 33.335 10.0702 31.5419Z" fill="#FFDE55"/>
<path d="M14.7939 6.73466C14.7939 9.3431 12.6792 11.4578 10.0708 11.4578C7.46234 11.4578 5.34766 9.3431 5.34766 6.73466C5.34766 4.12622 7.46234 2.01154 10.0708 2.01154C12.6792 2.01154 14.7939 4.12622 14.7939 6.73466Z" fill="#FF929F"/>
<path d="M10.9983 8.68437V4.785C10.9983 4.55531 10.8671 4.34593 10.6608 4.24562C10.4543 4.14531 10.2086 4.17125 10.0277 4.31312L8.09271 5.8325C7.83208 6.03718 7.78677 6.41406 7.99146 6.67468C8.19615 6.93531 8.57333 6.98093 8.83396 6.77625L9.79833 6.01906V8.68437C9.79833 9.01562 10.0668 9.28437 10.3983 9.28437C10.7296 9.28437 10.9983 9.01562 10.9983 8.68437Z" fill="black"/>
<path d="M27.532 21.1075V20.1115C27.532 19.78 27.2636 19.5115 26.932 19.5115C26.6008 19.5115 26.332 19.78 26.332 20.1115V21.1075C26.332 21.4387 26.6008 21.7075 26.932 21.7075C27.2636 21.7075 27.532 21.4387 27.532 21.1075Z" fill="black"/>
<path d="M13.4277 20.1115V21.1075C13.4277 21.4387 13.6962 21.7075 14.0277 21.7075C14.359 21.7075 14.6277 21.4387 14.6277 21.1075V20.1115C14.6277 19.78 14.359 19.5115 14.0277 19.5115C13.6962 19.5115 13.4277 19.78 13.4277 20.1115Z" fill="black"/>
<path d="M20.4803 22.3356C21.2568 22.3356 22.0334 22.0844 22.6815 21.5819C22.9431 21.3787 22.9909 21.0019 22.7878 20.74C22.5846 20.4781 22.2078 20.4306 21.9459 20.6337C21.0831 21.3028 19.8778 21.3028 19.0146 20.6337C18.7528 20.4306 18.3759 20.4781 18.1728 20.74C17.9696 21.0019 18.0174 21.3787 18.2793 21.5819C18.9271 22.0844 19.7037 22.3356 20.4803 22.3356Z" fill="black"/>
<path fill-rule="evenodd" clip-rule="evenodd" d="M37.0997 27.6815H35.8528C33.2681 22.3809 33.295 16.1356 33.2956 16.0709C33.2962 15.9878 33.3056 14.0075 32.7562 11.4425C31.83 7.11842 30.0519 4.61435 28.7234 3.27498C26.5941 1.12842 23.8203 0.039978 20.48 0.039978C18.5309 0.039978 16.7569 0.41529 15.2072 1.15529C14.9081 1.2981 14.7816 1.65623 14.9244 1.95529C15.0672 2.25435 15.4253 2.38092 15.7244 2.2381C17.1112 1.57592 18.7113 1.23998 20.48 1.23998C23.4869 1.23998 25.9722 2.20779 27.8678 4.11623C32.1 8.3781 32.0963 15.985 32.0956 16.0597C32.0931 16.3231 32.0641 22.26 34.5266 27.6815H31.7959C31.4644 27.6815 31.1959 27.9503 31.1959 28.2815C31.1959 28.6128 31.4644 28.8815 31.7959 28.8815H37.0997C38.5666 28.8815 39.76 30.075 39.76 31.5419C39.76 33.0087 38.5666 34.2022 37.0997 34.2022H3.86031C2.39344 34.2022 1.2 33.0087 1.2 31.5419C1.2 30.075 2.39344 28.8815 3.86031 28.8815H29.1381C29.4694 28.8815 29.7381 28.6128 29.7381 28.2815C29.7381 27.9503 29.4694 27.6815 29.1381 27.6815H6.43344C8.89594 22.2603 8.86687 16.3231 8.86438 16.0612C8.86406 16.0422 8.85625 14.2903 9.31312 12.0031C12.8256 12.3669 15.3938 9.66998 15.3938 6.73467C15.3938 3.79967 13.0056 1.41154 10.0706 1.41154C7.13531 1.41154 4.7475 3.79935 4.7475 6.73467C4.7475 8.9931 6.16156 10.9259 8.15063 11.6981C7.65563 14.1344 7.66344 15.9869 7.66437 16.0722C7.665 16.1356 7.69625 22.3728 5.10687 27.6815H3.86031C1.73156 27.6815 0 29.4131 0 31.5419C0 33.6706 1.73156 35.4022 3.86031 35.4022H14.5641C15.2762 38.0475 17.7122 39.935 20.48 39.935C23.2766 39.935 25.6866 38.0575 26.3969 35.4022H37.0997C39.2281 35.4022 40.96 33.6706 40.96 31.5419C40.96 29.4131 39.2281 27.6815 37.0997 27.6815ZM5.9475 6.73467C5.9475 4.46123 7.79719 2.61154 10.0706 2.61154C12.3441 2.61154 14.1938 4.46123 14.1938 6.73467C14.1938 9.0081 12.3441 10.8578 10.0706 10.8578C7.79719 10.8578 5.9475 9.0081 5.9475 6.73467ZM15.8178 35.4022C16.49 37.364 18.3644 38.735 20.48 38.735C22.6178 38.735 24.4741 37.3706 25.1428 35.4022H15.8178Z" fill="black"/>
</svg>
