<svg width="43" height="35" viewBox="0 0 43 35" fill="none" xmlns="http://www.w3.org/2000/svg">
<path fill-rule="evenodd" clip-rule="evenodd" d="M2.41866 32.6357C-0.27014 29.9469 0.245707 25.0712 3.57091 21.746C6.89644 18.4205 11.7831 17.8937 14.4609 20.5938C15.2951 21.4348 16.4406 21.5124 17.247 20.8591L17.992 20.2554L20.1727 21.1578L21.2645 23.5279L13.3087 31.4838C9.98344 34.809 5.10779 35.3248 2.41866 32.6357ZM11.5471 23.4248C10.3719 22.2496 8.06841 22.6478 6.40193 24.3143C4.73577 25.9804 4.33757 28.284 5.51277 29.4592C6.68797 30.6344 8.9915 30.2362 10.6577 28.57C12.3241 26.9035 12.7223 24.6 11.5471 23.4248Z" fill="#9AD880"/>
<path d="M32.3509 1.31227L20.5966 13.0662C19.6684 13.9945 19.1344 15.2489 19.1286 16.5614C19.1238 17.7224 18.8872 19.205 17.9922 20.2554L21.2647 23.5279L33.6205 11.1719C33.6205 11.1719 38.0604 6.7319 35.9476 1.97841C35.3157 0.556281 33.4511 0.211737 32.3509 1.31227Z" fill="#D8D7DA"/>
<path d="M23.9603 9.70251L20.5966 13.0662C19.6684 13.9944 19.1344 15.2488 19.1286 16.5614C19.1238 17.7224 18.8872 19.205 17.9922 20.2554L21.2647 23.5279L28.3224 16.4699C27.492 13.1732 25.5854 11.0122 23.9603 9.70251Z" fill="#C6C5CA"/>
<path fill-rule="evenodd" clip-rule="evenodd" d="M25.2822 20.8591C26.0889 21.5124 27.2344 21.4348 28.0683 20.5938C30.7461 17.8937 35.6327 18.4205 38.9583 21.746C42.2835 25.0712 42.7993 29.9469 40.1105 32.6357C37.4214 35.3248 32.5457 34.809 29.2205 31.4838L21.2646 23.5279L22.3565 21.1578L24.5372 20.2554L25.2822 20.8591ZM31.8715 28.57C33.538 30.2362 35.8415 30.6344 37.0164 29.4592C38.1916 28.284 37.7934 25.9804 36.1272 24.3143C34.4608 22.6478 32.1572 22.2496 30.9823 23.4248C29.8071 24.6 30.2053 26.9035 31.8715 28.57Z" fill="#B2E59C"/>
<path d="M10.1785 1.31227L21.9328 13.0662C22.8611 13.9945 23.395 15.2489 23.4008 16.5614C23.4057 17.7224 23.6423 19.205 24.5369 20.2554L21.2647 23.5279L8.90896 11.1722C8.90896 11.1722 4.46899 6.7319 6.58183 1.97841C7.21403 0.556281 9.07832 0.211737 10.1785 1.31227Z" fill="#EAEAEA"/>
<path d="M21.3463 16.818C21.3463 17.7392 20.5997 18.4861 19.6785 18.4861C18.7577 18.4861 18.0107 17.7392 18.0107 16.818C18.0107 15.8972 18.7577 15.1503 19.6785 15.1503C20.5997 15.1503 21.3463 15.8972 21.3463 16.818Z" fill="#9AD880"/>
<path fill-rule="evenodd" clip-rule="evenodd" d="M21.9667 16.818C21.9667 18.0801 20.9401 19.1067 19.678 19.1067C18.4162 19.1067 17.3896 18.0801 17.3896 16.818C17.3896 15.5562 18.4162 14.5297 19.678 14.5297C20.9401 14.5297 21.9667 15.5562 21.9667 16.818ZM20.7252 16.818C20.7252 16.2407 20.2556 15.7711 19.678 15.7711C19.1007 15.7711 18.6311 16.2407 18.6311 16.818C18.6311 17.3953 19.1007 17.8652 19.678 17.8652C20.2556 17.8652 20.7252 17.3953 20.7252 16.818Z" fill="black"/>
<path fill-rule="evenodd" clip-rule="evenodd" d="M33.4766 22.1924C34.5735 22.3818 35.6709 22.9795 36.5665 23.8754C37.4621 24.771 38.0597 25.8683 38.2494 26.9653C38.4527 28.1415 38.19 29.2029 37.456 29.8981C35.1185 32.1118 32.3285 29.9046 31.4329 29.009C30.5373 28.113 29.9397 27.0157 29.7499 25.9191C29.5466 24.7426 29.8285 23.7012 30.5437 22.9859C31.2587 22.271 32.3004 21.9891 33.4766 22.1924ZM32.3107 28.1311C33.027 28.847 35.2546 30.3623 36.5778 29.0203C37.487 28.0985 37.0862 26.1508 35.6886 24.7532C34.7979 23.8625 33.6808 23.3741 32.751 23.3741C32.2219 23.3741 31.7535 23.5318 31.4216 23.8638C30.5059 24.7794 30.9132 26.7336 32.3107 28.1311Z" fill="black"/>
<path fill-rule="evenodd" clip-rule="evenodd" d="M39.3976 21.3071C37.4516 19.3611 34.9228 18.246 32.4566 18.246H32.4398C30.5552 18.2499 28.8338 18.9163 27.6279 20.1568C26.539 21.2771 25.464 20.2069 25.464 20.2069L34.0601 11.6111C34.1083 11.5629 35.2521 10.4088 36.1329 8.634C37.3246 6.23318 37.4567 3.84431 36.5152 1.7263C36.1358 0.872055 35.3597 0.260214 34.4399 0.0892348C33.5191 -0.0817444 32.574 0.211409 31.9124 0.873348L22.7658 10.0196C22.5234 10.262 22.5234 10.655 22.7658 10.8974C23.0082 11.1402 23.4012 11.1402 23.6436 10.8974L32.7902 1.75119C33.1684 1.37303 33.6871 1.2124 34.2133 1.31001C34.7385 1.40729 35.1642 1.74279 35.3808 2.23052C36.1742 4.01562 36.0582 5.97364 35.0362 8.0506C34.2482 9.65211 33.192 10.7229 33.1819 10.7329L24.6268 19.2884C24.1168 18.351 24.0247 17.2195 24.0218 16.5588C24.0153 15.0808 23.4297 13.6848 22.3721 12.6273L10.6182 0.873348C9.95623 0.211409 9.01149 -0.0814212 8.09033 0.0892348C7.17047 0.259891 6.39476 0.872055 6.01499 1.7263C5.07347 3.84431 5.20566 6.23318 6.39735 8.634C7.27842 10.4088 8.42195 11.5629 8.47043 11.6111L17.0663 20.2069C17.0663 20.2069 16.0281 21.248 14.902 20.1568C13.6599 18.9525 11.975 18.2499 10.0904 18.246H10.0736C7.60778 18.246 5.07864 19.3611 3.13258 21.3071C-0.429541 24.8693 -0.946358 30.1483 1.98033 33.0747C3.23181 34.3261 4.96325 34.9735 6.83336 34.9735C8.03506 34.9732 9.2943 34.7059 10.5193 34.1597C10.8325 34.02 10.9731 33.6532 10.8334 33.34C10.6941 33.0268 10.327 32.8862 10.0138 33.0258C7.35567 34.2107 4.54696 33.8856 2.85817 32.1968C1.69299 31.0316 1.16002 29.3616 1.3575 27.4947C1.56015 25.5787 2.50232 23.6931 4.01042 22.185C5.72539 20.47 7.93422 19.4875 10.0732 19.4875H10.0878C11.6625 19.4907 12.9867 20.0612 14.0206 21.0308C15.9476 22.8379 17.9489 21.0896 17.9489 21.0896L20.3873 23.5279C20.3873 23.5279 14.0048 30.1496 12.134 31.7117C11.8706 31.9315 11.8296 32.32 12.0468 32.585C12.1696 32.7353 12.52 32.9302 12.9204 32.6723C13.8752 32.0572 21.2651 24.4058 21.2651 24.4058L28.7821 31.9227C30.4902 33.6309 33.2036 34.98 35.7276 34.98C37.6174 34.98 39.3058 34.3184 40.5499 33.0747C43.4766 30.148 42.9598 24.8689 39.3976 21.3071ZM7.49401 8.0506C6.47201 5.97364 6.32786 4.00269 7.14946 2.23052C7.80914 0.807089 9.24614 1.26088 9.74001 1.75119L21.4943 13.5051C22.3185 14.3296 22.7752 15.416 22.7803 16.564C22.7848 17.607 22.961 19.0272 23.7199 20.195L21.2651 22.6501L9.3486 10.7336L9.34789 10.7329C9.31541 10.6997 8.27378 9.63509 7.49401 8.0506ZM29.6599 31.0449C32.7378 34.1228 37.2292 34.6396 39.672 32.1968C42.1146 29.7543 41.5977 25.2629 38.5198 22.1847C36.8048 20.47 34.596 19.4871 32.457 19.4871H32.4424C30.8677 19.4904 29.5309 20.0476 28.5096 21.0308C26.4391 23.0237 24.5813 21.0896 24.5813 21.0896L22.143 23.5279L29.6599 31.0449Z" fill="black"/>
<path fill-rule="evenodd" clip-rule="evenodd" d="M9.05328 22.1924C10.2295 21.9891 11.2712 22.271 11.9864 22.9859C12.7014 23.7012 12.9832 24.7426 12.7799 25.9191C12.5902 27.0157 11.9926 28.113 11.097 29.009C10.201 29.9046 7.16766 31.9812 5.07389 29.8981C4.35701 29.1851 4.07711 28.1415 4.28041 26.9653C4.47013 25.8683 5.06775 24.771 5.96337 23.8754C6.859 22.9798 7.9563 22.3818 9.05328 22.1924ZM5.95206 29.0203C7.27885 30.3568 9.50287 28.847 10.2191 28.1311C11.6167 26.7336 12.0239 24.7794 11.1086 23.8638C10.1929 22.9484 8.23879 23.3557 6.84122 24.7532C5.44365 26.1508 5.03996 28.1017 5.95206 29.0203Z" fill="black"/>
</svg>
