<svg width="55" height="35" viewBox="0 0 55 35" fill="none" xmlns="http://www.w3.org/2000/svg">
<path d="M37.3439 22.2956H5.47256C2.89241 22.2956 0.800781 20.2039 0.800781 17.6238V5.47207C0.800781 2.89192 2.89241 0.800293 5.47256 0.800293H37.3439C39.924 0.800293 42.0156 2.89192 42.0156 5.47207V17.6238C42.0156 20.2039 39.924 22.2956 37.3439 22.2956Z" fill="#86D7EA"/>
<path d="M35.5307 11.5481H0.800781V17.6379C0.800781 20.2101 2.88616 22.2955 5.45839 22.2955H37.358C38.423 22.2955 39.4038 21.9375 40.1883 21.336V16.2057C40.1883 13.6335 38.1029 11.5481 35.5307 11.5481Z" fill="#71C5E2"/>
<path d="M43.2672 28.2049H11.3676C8.79534 28.2049 6.70996 26.1195 6.70996 23.5473V11.3672C6.70996 8.79497 8.79534 6.70959 11.3676 6.70959H43.2672C45.8395 6.70959 47.9248 8.79497 47.9248 11.3672V23.5473C47.9248 26.1195 45.8395 28.2049 43.2672 28.2049Z" fill="#A2E5F4"/>
<path d="M41.4399 17.4575H6.70996V23.5473C6.70996 26.1196 8.79534 28.2049 11.3676 28.2049H43.2672C44.3318 28.2049 45.313 27.8469 46.0975 27.2454V22.1151C46.0975 19.5429 44.0121 17.4575 41.4399 17.4575Z" fill="#86D7EA"/>
<path d="M49.1764 34.1143H17.2767C14.7045 34.1143 12.6191 32.0289 12.6191 29.4567V17.2766C12.6191 14.7044 14.7045 12.619 17.2767 12.619H49.1764C51.7486 12.619 53.834 14.7044 53.834 17.2766V29.4567C53.834 32.0289 51.7486 34.1143 49.1764 34.1143Z" fill="#CCF8FF"/>
<path d="M20.4942 29.4567V17.2766C20.4942 14.7044 22.5796 12.619 25.1522 12.619H17.2767C14.7045 12.619 12.6191 14.7044 12.6191 17.2766V29.4567C12.6191 32.0289 14.7045 34.1143 17.2767 34.1143H25.1522C22.5796 34.1143 20.4942 32.0289 20.4942 29.4567Z" fill="#B7F3F9"/>
<path d="M23.1852 19.0781C23.1852 20.9492 21.6688 22.4656 19.7977 22.4656C17.927 22.4656 16.4102 20.9492 16.4102 19.0781C16.4102 17.2074 17.927 15.6906 19.7977 15.6906C21.6688 15.6906 23.1852 17.2074 23.1852 19.0781Z" fill="#B2E59C"/>
<path d="M36.1784 20.9342H28.568C27.5472 20.9342 26.7119 20.0989 26.7119 19.078C26.7119 18.0572 27.5472 17.2219 28.568 17.2219H36.1784C37.1992 17.2219 38.0346 18.0572 38.0346 19.078C38.0346 20.0989 37.1992 20.9342 36.1784 20.9342Z" fill="#D8D7DA"/>
<path d="M48.9961 28.42C48.9961 29.4687 48.1462 30.3186 47.0979 30.3186C46.0495 30.3186 45.1992 29.4687 45.1992 28.42C45.1992 27.3716 46.0495 26.5217 47.0979 26.5217C48.1462 26.5217 48.9961 27.3716 48.9961 28.42Z" fill="#FFDE55"/>
<path d="M41.832 28.42C41.832 29.4687 40.9821 30.3186 39.9334 30.3186C38.8851 30.3186 38.0352 29.4687 38.0352 28.42C38.0352 27.3716 38.8851 26.5217 39.9334 26.5217C40.9821 26.5217 41.832 27.3716 41.832 28.42Z" fill="#FFDE55"/>
<path d="M34.668 28.42C34.668 29.4687 33.818 30.3186 32.7697 30.3186C31.721 30.3186 30.8711 29.4687 30.8711 28.42C30.8711 27.3716 31.721 26.5217 32.7697 26.5217C33.818 26.5217 34.668 27.3716 34.668 28.42Z" fill="#FFDE55"/>
<path d="M44.8468 21.2218C45.0031 21.3781 45.5529 21.6574 45.9789 21.2218L46.9905 20.2102L48.0021 21.2218C48.4807 21.642 48.9779 21.3781 49.1342 21.2218C49.4464 20.9092 49.4464 20.4023 49.1342 20.0901L48.1222 19.0781L49.1342 18.0664C49.4464 17.7538 49.4464 17.247 49.1342 16.9343C48.8216 16.6221 48.3148 16.6221 48.0021 16.9343L46.9905 17.9464L45.9789 16.9343C45.6662 16.6221 45.1594 16.6221 44.8468 16.9343C44.5341 17.2474 44.5341 17.7538 44.8468 18.0664L45.8588 19.0781L44.8468 20.0901C44.5341 20.4028 44.5341 20.9092 44.8468 21.2218Z" fill="black"/>
<path fill-rule="evenodd" clip-rule="evenodd" d="M42.8155 5.90933C48.9049 5.90933 48.7248 11.8187 48.7248 11.8187C54.6341 11.8187 54.6341 17.2766 54.6341 17.2766V29.4566C54.6341 32.4661 52.1857 34.9146 49.1762 34.9146H17.2766C14.2671 34.9146 11.8187 32.4661 11.8187 29.4566V17.2766C11.8187 14.2671 14.2671 11.8187 17.2766 11.8187H47.1242C47.1242 11.8187 47.5481 7.61749 43.2669 7.50994H38.23C37.7881 7.50994 37.4297 7.15189 37.4297 6.70964C37.4297 6.26739 37.7881 5.90933 38.23 5.90933H41.2149C41.2149 5.90933 41.3999 1.60061 37.3434 1.60061H5.47208C3.33752 1.60061 1.60061 3.33752 1.60061 5.47208V17.6238C1.60061 21.4782 5.90933 21.4953 5.90933 21.4953V11.3672C5.90933 8.35777 8.35777 5.90933 11.3672 5.90933H34.5665C35.0083 5.90933 35.3668 6.26739 35.3668 6.70964C35.3668 7.15189 35.0083 7.50994 34.5665 7.50994H11.3672C9.24019 7.50994 7.50994 9.24019 7.50994 11.3672V23.5473C7.50994 24.9678 8.28732 26.27 9.53947 26.9453C9.92837 27.1549 10.0738 27.6401 9.86376 28.0294C9.71954 28.2974 9.35815 28.6751 8.77959 28.3541C5.81638 26.7102 5.90933 23.0959 5.90933 23.0959C5.90933 23.0959 0 23.2659 0 17.6238V5.47208C0 2.45468 2.45468 0 5.47208 0H37.3438C42.7909 0 42.8155 5.90933 42.8155 5.90933ZM49.1762 33.3139C51.3029 33.3139 53.0335 31.5837 53.0335 29.4566V17.2766C53.0335 15.1499 51.3029 13.4193 49.1762 13.4193H17.2766C15.1495 13.4193 13.4193 15.1495 13.4193 17.2766V29.4566C13.4193 31.5833 15.1495 33.3139 17.2766 33.3139H49.1762Z" fill="black"/>
<path fill-rule="evenodd" clip-rule="evenodd" d="M15.6104 19.0781C15.6104 16.7689 17.489 14.8903 19.7982 14.8903C22.1074 14.8903 23.986 16.7689 23.986 19.0781C23.986 21.3873 22.1074 23.2659 19.7982 23.2659C17.489 23.2659 15.6104 21.3873 15.6104 19.0781ZM17.211 19.0781C17.211 20.5049 18.3718 21.6653 19.7982 21.6653C21.225 21.6653 22.3854 20.5049 22.3854 19.0781C22.3854 17.6517 21.225 16.4913 19.7982 16.4913C18.3718 16.4913 17.211 17.6517 17.211 19.0781Z" fill="black"/>
<path fill-rule="evenodd" clip-rule="evenodd" d="M36.1789 16.4216C37.6437 16.4216 38.8354 17.6133 38.8354 19.0781C38.8354 20.5428 37.6437 21.7345 36.1789 21.7345H28.5685C27.1034 21.7345 25.9121 20.5428 25.9121 19.0781C25.9121 17.6133 27.1038 16.4216 28.5685 16.4216H36.1789ZM28.5685 20.1339H36.1789C36.7612 20.1339 37.2348 19.6604 37.2348 19.0781C37.2348 18.4962 36.7612 18.0222 36.1789 18.0222H28.5685C27.9862 18.0222 27.5127 18.4962 27.5127 19.0781C27.5127 19.6604 27.9862 20.1339 28.5685 20.1339Z" fill="black"/>
<path fill-rule="evenodd" clip-rule="evenodd" d="M44.3984 28.42C44.3984 26.9319 45.6093 25.7214 47.0974 25.7214C48.5854 25.7214 49.7959 26.9319 49.7959 28.42C49.7959 29.908 48.5854 31.1189 47.0974 31.1189C45.6093 31.1189 44.3984 29.908 44.3984 28.42ZM45.999 28.42C45.999 29.0256 46.4917 29.5183 47.0974 29.5183C47.7026 29.5183 48.1953 29.0256 48.1953 28.42C48.1953 27.8143 47.703 27.322 47.0974 27.322C46.4917 27.322 45.999 27.8143 45.999 28.42Z" fill="black"/>
<path fill-rule="evenodd" clip-rule="evenodd" d="M37.2344 28.42C37.2344 26.9319 38.4448 25.7214 39.9329 25.7214C41.4214 25.7214 42.6318 26.9319 42.6318 28.42C42.6318 29.908 41.421 31.1189 39.9329 31.1189C38.4448 31.1189 37.2344 29.908 37.2344 28.42ZM38.835 28.42C38.835 29.0256 39.3277 29.5183 39.9329 29.5183C40.5386 29.5183 41.0312 29.0256 41.0312 28.42C41.0312 27.8143 40.5386 27.322 39.9329 27.322C39.3277 27.322 38.835 27.8143 38.835 28.42Z" fill="black"/>
<path fill-rule="evenodd" clip-rule="evenodd" d="M30.0703 28.42C30.0703 26.9319 31.2812 25.7214 32.7693 25.7214C34.2573 25.7214 35.4678 26.9319 35.4682 28.42C35.4682 29.908 34.2573 31.1189 32.7693 31.1189C31.2812 31.1189 30.0703 29.908 30.0703 28.42ZM31.6709 28.42C31.6709 29.0256 32.1636 29.5183 32.7693 29.5183C33.3745 29.5183 33.8676 29.0256 33.8676 28.42C33.8676 27.8143 33.3749 27.322 32.7693 27.322C32.1636 27.322 31.6709 27.8143 31.6709 28.42Z" fill="black"/>
</svg>
