<svg width="20" height="20" viewBox="0 0 20 20" fill="none" xmlns="http://www.w3.org/2000/svg">
<circle cx="9.92897" cy="9.92909" r="9.92885" fill="#9B9B9B"/>
<path d="M10.7304 13.296C9.97976 13.238 9.66436 12.8658 9.07569 12.5084C8.75215 14.2059 8.35675 15.8332 7.1856 16.6833C6.82366 14.1176 7.71622 12.1905 8.13074 10.145C7.42419 8.95566 8.21569 6.56168 9.70596 7.15159C11.5401 7.8769 8.11799 11.5741 10.4153 12.0358C12.8137 12.518 13.7929 7.87425 12.3054 6.3638C10.1564 4.1831 6.05003 6.31425 6.55498 9.43602C6.67799 10.1992 7.46667 10.4309 6.87003 11.484C5.49463 11.1794 5.08436 10.0946 5.13711 8.64841C5.22224 6.28115 7.26419 4.62363 9.31233 4.39425C11.9026 4.10434 14.3337 5.3454 14.6693 7.78186C15.0468 10.5318 13.4999 13.5098 10.7304 13.296Z" fill="white"/>
</svg>
